<svg width="39" height="36" fill="none" xmlns="http://www.w3.org/2000/svg">

    <path d="M12 6H9v3h3V6zm3 0h-3v3h3V6zM9 9H6v3h3V9zm0 3H6v3h3v-3zm0 3H6v3h3v-3zm9-9h-3v3h3V6zm-6 12H9v3h3v-3zm3 3h-3v3h3v-3zm3 3h-3v3h3v-3zm9-18h3v3h-3V6zm-3 0h3v3h-3V6zm6 3h3v3h-3V9zm0 3h3v3h-3v-3zm0 3h3v3h-3v-3zm-9-9h3v3h-3V6zm6 12h3v3h-3v-3zm-3 3h3v3h-3v-3zm-3 3h3v3h-3v-3zm0 3h-3v3h3v-3zm0-18h-3v3h3V9z" fill="#000"/>
    
    <path d="M12 9H9v3h3V9zm3 3h-3v3h3v-3zm3-3h-3v3h3V9zm-6 6H9v3h3v-3zm3 0h-3v3h3v-3zm0 3h-3v3h3v-3zm3-6h-3v3h3v-3zm0 9h-3v3h3v-3zm0-3h-3v3h3v-3zm9-9h3v3h-3V9zm-3 0h3v3h-3V9zm3 3h3v3h-3v-3zm-3 0h3v3h-3v-3zm-3-3h3v3h-3V9zm6 6h3v3h-3v-3zm-3 0h3v3h-3v-3zm0 3h3v3h-3v-3zm-3-6h3v3h-3v-3zm0 9h3v3h-3v-3zm0-3h3v3h-3v-3zm0 3h-3v3h3v-3zm0 3h-3v3h3v-3z" fill="red"/>
    
    <path d="M18 15h-3v3h3v-3zm3 0h3v3h-3v-3zm0 0h-3v3h3v-3zm0-3h-3v3h3v-3zm0 6h-3v3h3v-3z" fill="#fff"/>
    
    <path d="M36 13h3v3h-3v-3zm-9 14h3v3h-3v-3zm-9 6h3v3h-3v-3zm-9-6h3v3H9v-3zM24 0h3v3h-3V0zm9 3h3v3h-3V3zM3 3h3v3H3V3zm9-3h3v3h-3V0zM0 13h3v3H0v-3z" fill="red"/>

</svg>